<svg xmlns="http://www.w3.org/2000/svg" viewBox="0 0 1015.82 138.96"><defs><style>.cls-1{fill:#fff;}</style></defs><g id="Layer_2" data-name="Layer 2"><g id="Layer_1-2" data-name="Layer 1"><path class="cls-1" d="M107.23,115.53q0,11.32,12.4,11.33c.71,0,1.07,1.49,1.07,4.49s-.36,4.59-1.07,4.59q-9.87-.69-21.88-.69t-22.26.69c-.78,0-1.17-1.5-1.17-4.49s.39-4.59,1.17-4.59q12.6,0,12.6-11.33V74.8c0-2.21-.88-3.32-2.64-3.32H35.64q-2.73,0-2.73,3.32v40.73q0,11.32,12.4,11.33c.72,0,1.08,1.49,1.08,4.49s-.36,4.59-1.08,4.59q-10.35-.69-21.77-.69-12.51,0-22.37.69c-.78,0-1.17-1.5-1.17-4.49s.39-4.59,1.17-4.59q12.69,0,12.7-11.33v-93q0-11.32-12.6-11.33C.55,11.23.2,9.73.2,6.74S.55,2.15,1.27,2.15q3.7.5,21.78.49,18.84,0,22.56-.49c.71,0,1.07,1.5,1.07,4.49s-.36,4.59-1.07,4.59q-12.7,0-12.7,11.33V58.89c0,2.28.91,3.41,2.73,3.41H85.45c1.76,0,2.64-1.13,2.64-3.41V22.56q0-11.32-12.5-11.33c-.79,0-1.18-1.5-1.18-4.49s.39-4.59,1.18-4.59q3.51.5,21.87.49,18.75,0,22.46-.49c.78,0,1.17,1.5,1.17,4.49s-.39,4.59-1.17,4.59q-12.69,0-12.69,11.33Z"/><path class="cls-1" d="M252.54,114.94q.19,11.93,12.69,11.92c.79,0,1.18,1.49,1.18,4.49s-.39,4.59-1.18,4.59q-9.85-.69-21.87-.69-10.16,0-21,.69c-.78,0-1.17-1.5-1.17-4.49s.39-4.59,1.17-4.59q11.92,0,11.92-11.92l-.39-65.33c0-1.37-.17-2-.49-2-.52,0-1,.58-1.37,1.76l-35.25,85.54c-.59,1.5-1.37,2.25-2.35,2.25s-1.92-.75-2.44-2.25L156.15,40.72c-.52-1.36-.94-2-1.27-2s-.58.85-.78,2.54l-3.9,73.93v3q0,8.7,13.28,8.7c.78,0,1.17,1.49,1.17,4.49s-.39,4.59-1.17,4.59q-10.35-.69-17.87-.69a123.55,123.55,0,0,0-15.53.69c-.72.13-1.08-1.37-1.08-4.49s.36-4.59,1.08-4.59q11.52,0,11.91-12.11l4.79-88.48V21.88q0-10.65-13.58-10.65c-.65,0-1-1.5-1-4.49s.32-4.59,1-4.59q6.45.5,13.58.49h7.61q5.18,0,9.09,8.59l34.37,89.16c.52,1.37,1.14,2,1.86,2s1.49-.75,2.15-2.24l36.62-89.56q3.21-8,8.59-8h4.2q8.1,0,12.79-.49c.78,0,1.17,1.5,1.17,4.49s-.39,4.59-1.17,4.59q-8.21,0-10.64,4.59a22.27,22.27,0,0,0-1.66,9.57Z"/><path class="cls-1" d="M413,127.83c0,6.32-.78,9.47-2.35,9.47-1.36,0-3.32-1.85-5.85-5.56L340.62,36.23q-1.06-1.56-1.56-1.56c-.71,0-1.07.72-1.07,2.15v78.71q0,11.32,11.81,11.33c.79,0,1.18,1.49,1.18,4.49s-.39,4.65-1.18,4.59q-7.12-.69-15.62-.69-7.9,0-16.7.69c-.72.13-1.07-1.37-1.07-4.49s.35-4.59,1.07-4.59q12.4,0,12.4-11.33V22.36q0-11.13-13.47-11.13c-.72,0-1.08-1.5-1.08-4.49s.36-4.59,1.08-4.59a128.11,128.11,0,0,0,13.77.49q6.63,0,7.71.19,4.59.88,7.81,5.57l55.57,84.67a2.21,2.21,0,0,0,1.85,1.36c1.24,0,1.86-1,1.86-3V22.75q0-11.52-11.91-11.52c-.78,0-1.18-1.5-1.18-4.49s.4-4.59,1.18-4.59q7.9.5,15.43.49,7.8,0,15-.49c.78,0,1.17,1.5,1.17,4.49s-.39,4.59-1.17,4.59Q413,11.23,413,22.75Z"/><path class="cls-1" d="M447.68,115.53V22.36q0-10.63-13.48-10.64c-.71,0-1.07-1.51-1.07-4.54s.36-4.54,1.07-4.54q11.13.58,23.34.58t29-.29q16.79-.3,26.36-.29,4.4,0,4.4,5V37.5c0,1.11-1.32,1.66-4,1.66s-4-.55-4-1.66q0-12.69-7.72-20-4.79-4.59-9.76-4.78l-23.15-1c-1.36-.07-2,1.24-2,3.9V65.33c0,1.89.75,2.83,2.25,2.83h10.55q9.57,0,9.57-8.88V49.61c0-.91,1.36-1.37,4.1-1.37s4.1.46,4.1,1.37q-.5,6.54-.49,22.56t.49,22.17c0,1-1.37,1.46-4.1,1.46s-4.1-.49-4.1-1.46v-8.4q0-8.7-9.57-8.69H469c-1.5,0-2.25,1-2.25,3v33.3q0,7.53,5.86,11.33a11.5,11.5,0,0,0,6.35,2l17.38-.49q12.31-.2,16-13.38a42.26,42.26,0,0,0,1.37-11.33c0-1.11,1.33-1.66,4-1.66s4,.55,4,1.66v28q0,6.24-9.18,6.25-14.55,0-28.07-.34t-26.22-.35q-12.71,0-23.25.69c-.78,0-1.17-1.52-1.17-4.54s.39-4.54,1.17-4.54Q447.68,126.86,447.68,115.53Z"/><path class="cls-1" d="M672.09,19.53l-41.89,115q-1.86,4.4-3.91,4.39t-4.49-6.15l-16-44.53c-.4-1.17-.79-1.76-1.18-1.76s-.84.65-1.36,2l-16.8,46.09q-1.66,4.4-3.91,4.39c-1.5,0-3-2.05-4.49-6.15L538.5,22.56q-4-11.32-11.13-11.33c-.72,0-1.08-1.5-1.08-4.49s.36-4.59,1.08-4.59q3.71.5,16.89.49,14.46,0,18.26-.49c.78,0,1.18,1.5,1.18,4.49s-.4,4.59-1.18,4.59c-3.58,0-5.4,1.47-5.47,4.39a24.4,24.4,0,0,0,1.47,6.94L586,98.73c.39,1.11.94,1.66,1.66,1.66s1.17-.55,1.56-1.66l9.48-26a7.81,7.81,0,0,0,.48-2.14,8,8,0,0,0-.48-2.35l-18.36-51q-2.16-6.06-6.35-6.06c-.78,0-1.17-1.5-1.17-4.49s.39-4.59,1.17-4.59a160.41,160.41,0,0,0,16.21.49,156,156,0,0,0,15.92-.49c.71,0,1.07,1.5,1.07,4.49s-.36,4.59-1.07,4.59c-3.65,0-5.47,1.34-5.47,4a21.52,21.52,0,0,0,1.56,7.33L608,38.48c.46,1.17.94,1.75,1.47,1.75s1.27-.78,1.85-2.34l5.37-14.55c1.37-3.65,2-6.41,2-8.3q0-3.81-4.2-3.81c-.71,0-1.07-1.5-1.07-4.49s.36-4.59,1.07-4.59a128.36,128.36,0,0,0,13.77.49,134.69,134.69,0,0,0,14.36-.49c.78,0,1.17,1.5,1.17,4.49s-.39,4.59-1.17,4.59q-11.33,0-14.36,8.3L616,53.42a11.48,11.48,0,0,0-.88,3.9,6.53,6.53,0,0,0,.39,2.25l14.16,39c.39,1.17,1,1.75,1.76,1.75s1.14-.52,1.46-1.56l27.54-75.39A22.2,22.2,0,0,0,662.13,16q-.09-4.78-5.08-4.79c-.78,0-1.17-1.5-1.17-4.49s.39-4.59,1.17-4.59a132.68,132.68,0,0,0,14.56.49,141.69,141.69,0,0,0,14.84-.49c.72,0,1.07,1.5,1.07,4.49s-.35,4.59-1.07,4.59Q675.13,11.23,672.09,19.53Z"/><path class="cls-1" d="M750.17,115.53q0,11.32,13.38,11.33c.71,0,1.07,1.51,1.07,4.54s-.36,4.54-1.07,4.54q-6.64-.69-22.85-.69t-23.64.69c-.71,0-1.07-1.52-1.07-4.54s.36-4.54,1.07-4.54q14.07,0,14.06-11.33v-101c0-1.89-.68-2.83-2-2.83H717.84q-6.74,0-12.06,7.08t-5.32,18c0,1-1.32,1.56-4,1.56s-4-.52-4-1.56V7.62c0-2.22.36-3.55,1.07-4q1.86-1,7.72-1,14.65.58,38.72.58t40.58-.58q6.63,0,7.52,1.56a6.62,6.62,0,0,1,.68,3.42v29.2c0,1-1.34,1.56-4,1.56s-4-.52-4-1.56q0-12.6-6.1-18.85t-12-6.25h-10c-1.75,0-2.63.94-2.63,2.83Z"/><path class="cls-1" d="M901.19,70.51a78.92,78.92,0,0,1-11.33,40.72q-15.81,26.65-42.48,26.66-17.58,0-31.64-12.11-22-18.94-22-55.66,0-24.51,13.77-46.29Q822.78,0,847.68,0,866.91,0,881,15.14,901.19,37,901.19,70.51ZM879.9,71.88q0-24.91-9.76-42.78-11-20.51-22.85-20.51t-20.9,12.7q-11.34,16.22-11.33,43.26,0,29.69,12,48.34,10.06,15.83,21.39,15.82,20.7,0,27.93-27.25Q879.9,88.77,879.9,71.88Z"/><path class="cls-1" d="M1004.1,127.83c0,6.32-.78,9.47-2.34,9.47q-2.06,0-5.86-5.56L931.74,36.23q-1.08-1.56-1.56-1.56c-.72,0-1.08.72-1.08,2.15v78.71q0,11.32,11.82,11.33c.78,0,1.17,1.49,1.17,4.49s-.39,4.65-1.17,4.59q-7.12-.69-15.63-.69-7.9,0-16.7.69c-.71.13-1.07-1.37-1.07-4.49s.36-4.59,1.07-4.59q12.4,0,12.41-11.33V22.36q0-11.13-13.48-11.13c-.72,0-1.07-1.5-1.07-4.49s.35-4.59,1.07-4.59a128.11,128.11,0,0,0,13.77.49q6.65,0,7.71.19a12.28,12.28,0,0,1,7.82,5.57l55.56,84.67a2.21,2.21,0,0,0,1.86,1.36c1.23,0,1.85-1,1.85-3V22.75q0-11.52-11.91-11.52c-.78,0-1.17-1.5-1.17-4.49s.39-4.59,1.17-4.59q7.91.5,15.43.49,7.82,0,15-.49c.78,0,1.17,1.5,1.17,4.49s-.39,4.59-1.17,4.59q-10.54,0-10.55,11.52Z"/></g></g></svg>